<svg version="1.2" xmlns="http://www.w3.org/2000/svg" viewBox="0 0 1080 870" width="1080" height="870">
	<title>svg_transmedia - blanco-svg</title>
	<style>
		.s0 { fill: #ffffff } 
		.s1 { fill: #fefeff } 
	</style>
	<g id="Background">
		<path id="Path 0" class="s0" d="m537.2 94.3c-0.6 0.6-2.2 4.8-3.6 9.2-1.5 4.4-2.6 8.6-2.6 9.3 0 0.6-1.7 6.7-3.9 13.5-2.1 6.7-5 16.3-6.4 21.2-1.5 4.9-4.2 14.4-6.2 21-1.9 6.6-5.2 17.4-7.2 24-1.9 6.6-4.4 14.9-5.3 18.5-1 3.6-3 11-4.5 16.5-1.5 5.5-3.6 13.6-4.6 18-1.1 4.4-3.3 14.3-4.8 22-1.6 7.7-4.1 20.8-5.5 29-1.3 8.3-3.2 20.9-4 28-0.9 7.1-2 20.2-2.6 29-0.6 8.8-1 23-1 31.5 0 8.5 0.5 22.7 1 31.5 0.6 8.8 2.2 24.1 3.5 34 1.4 9.9 3.4 22.5 4.5 28 1.1 5.5 2.5 12.5 3.1 15.5 0.6 3 1.5 7.5 2 10 0.5 2.5 1.2 6.5 1.6 9 0.6 3.8 0.5 4.3-0.7 3.5-0.8-0.5-4.3-5.3-7.7-10.5-3.4-5.2-7.7-11.5-9.4-14-1.8-2.5-5.2-7.4-7.7-11-2.5-3.6-7.2-10.3-10.6-15-3.3-4.7-11.9-15.7-19.1-24.5-7.1-8.8-20.4-23.6-29.5-32.9-9.1-9.2-24.2-23.4-33.5-31.5-9.4-8.1-22.2-18.8-28.5-23.7-6.3-5-16.5-12.9-22.5-17.5-6.1-4.7-14.5-11-18.8-14-4.4-2.9-9.1-6.3-10.7-7.4-1.5-1.1-6.1-4.3-10.1-7.1-4.1-2.8-12.4-8.4-18.5-12.5-6-4.1-13.2-8.8-16-10.5-2.7-1.7-5.9-3.6-7.2-4.3-1.2-0.6-2.7-1.1-3.2-1.1-0.6 0-1 0.7-1 1.5 0 0.8 1.5 5.2 3.4 9.8 1.8 4.5 5.7 13.6 8.5 20.2 2.9 6.6 6.6 15.1 8.3 19 1.7 3.9 4.3 9.7 5.8 13 1.5 3.3 3.9 8.7 5.3 12 1.4 3.3 4.6 10.5 7.2 16 2.6 5.5 8.8 18.3 13.8 28.5 5 10.2 12.7 24.8 17.1 32.5 4.3 7.7 11.9 20.1 16.9 27.5 4.9 7.4 14 19.8 20.2 27.5 6.2 7.7 15 18.1 19.6 23.1 4.6 5.1 12 12.5 16.5 16.5 4.4 4.1 11.4 10.1 15.5 13.4 4.1 3.3 11.7 9.2 16.9 13.1 5.2 3.9 13.8 10.6 19 14.8 5.2 4.3 11.6 9.8 14.2 12.2 2.7 2.4 4.8 4.6 4.8 4.9 0 0.3-1 0.3-2.3 0-1.2-0.3-3.3-0.8-4.7-1.1-1.4-0.3-3.2-0.9-4-1.4-0.8-0.5-4.9-1.8-9-3-4.1-1.1-11.1-3-15.5-4.1-4.4-1.1-11.4-2.7-15.5-3.5-4.1-0.7-9.8-1.9-12.5-2.5-2.8-0.5-10.2-1.7-16.5-2.5-6.3-0.8-18.7-1.9-27.5-2.5-8.9-0.6-26.2-0.8-39-0.5-12.7 0.4-28 1.1-34 1.7-6.1 0.5-16.9 1.7-24 2.5-7.2 0.8-24.3 3.2-38 5.4-13.8 2.1-26.2 4.3-27.8 4.9-1.5 0.6-2.7 1.4-2.7 1.8 0 0.5 5.1 3.6 11.3 6.9 6.1 3.4 17 9.1 24.2 12.6 7.1 3.6 21.8 10.4 32.5 15.3 10.7 4.8 24.2 10.6 30 12.8 5.8 2.2 13.4 5.1 17 6.4 3.6 1.3 9.4 3.3 13 4.5 3.6 1.1 9.4 2.9 13 3.8 3.6 1 12.8 3.3 20.5 5.2 7.7 2 18.3 4.3 23.5 5.1 5.2 0.9 15.8 2.4 23.5 3.4 10 1.2 21.1 1.7 39 1.7 17.6 0 28.9-0.5 38-1.7 7.1-0.9 15.1-1.9 17.7-2.2 2.7-0.3 4.8-0.3 4.8 0 0 0.3-3.3 2.9-7.3 5.9-3.9 2.9-9 6.8-11.2 8.5-2.2 1.8-8 7.1-12.9 11.9-4.8 4.8-13.2 14.1-18.5 20.7-5.3 6.6-13.6 18-18.4 25.2-4.8 7.3-8.4 13.6-8.1 14 0.3 0.5 3.5-0.3 7.2-1.5 3.7-1.3 8-3 9.7-3.7 1.6-0.8 7.5-3.2 13-5.5 5.5-2.3 16.5-7.8 24.5-12.2 8-4.5 18.3-10.9 23-14.4 4.7-3.4 13.4-11.3 19.5-17.6 6-6.3 12.7-13.8 14.8-16.8 2.1-3 5.7-8.4 8-12 2.3-3.6 4.9-6.5 5.7-6.5 1.2 0 1.5 1.2 1.4 5.5-0.1 3-0.7 9.8-1.3 15-0.7 5.2-2.3 18.7-3.7 30-1.5 11.3-3.2 25.9-3.9 32.5-0.8 7.9-1 12.9-0.3 14.5 0.9 2.4 1.1 2.5 6.1 1.7 2.9-0.5 7.3-2 9.9-3.3 2.7-1.3 5.7-3.8 6.8-5.7 1.2-2 2.2-6.1 2.7-11.2 0.5-4.4 0.5-14.5 0.1-22.5-0.4-8-1.2-19.7-1.8-26-0.6-6.3-1.2-14.3-1.3-17.7-0.1-3.4 0.1-6.5 0.6-7 0.4-0.4 1.5 0.3 2.5 1.6 0.9 1.3 4.9 6.2 8.8 11 3.9 4.7 12.9 14.3 20 21.2 7.1 6.9 15.1 14.1 17.8 16 2.8 1.9 9.7 6.4 15.5 10.1 5.9 3.7 13.1 8.1 16.1 9.7 3 1.6 10.2 4.8 16 7.1 5.8 2.3 13.4 4.8 17 5.6 4 0.8 6.9 1 7.5 0.4 0.7-0.6-0.5-3.1-3.4-7.2-2.4-3.5-6.7-9.7-9.5-13.8-2.8-4.1-8.5-11.8-12.7-17-4.2-5.2-11.9-13.6-17-18.5-5.2-5-11.9-11.1-14.9-13.6-3-2.5-7.1-5.5-9-6.7-1.9-1.1-4.9-3.5-6.5-5.2l-3-3.1c6.2 0.8 15 1.9 23.5 2.8 10.8 1.2 22.7 1.7 39.5 1.7 18.7-0.1 27.8-0.6 41-2.3 9.3-1.2 21.5-3.1 27-4.2 5.5-1 12.5-2.6 15.5-3.4 3-0.8 11.2-3.1 18.2-5 7.1-1.9 17-4.9 22-6.6 5.1-1.6 14-4.8 19.8-7.1 5.8-2.3 17.7-7.3 26.5-11.1 8.8-3.9 25.7-11.7 37.5-17.5 11.8-5.7 25-12.4 29.2-14.8 4.3-2.4 7.8-4.9 7.8-5.4 0-0.5-1.2-1.5-2.8-2.1-1.5-0.6-6.5-1.7-11.2-2.5-4.7-0.8-13-2.2-18.5-3-5.5-0.8-12.9-1.9-16.5-2.4-3.6-0.5-12.4-1.6-19.5-2.4-7.2-0.8-18.4-1.9-25-2.5-6.6-0.6-21.2-1.3-32.5-1.6-11.3-0.4-27.5-0.1-36 0.4-8.5 0.6-19.8 1.6-25 2.1-5.2 0.6-16 2.4-24 4-8 1.6-19 4-24.5 5.4-5.5 1.3-15.3 4.1-21.8 6-6.4 2-12.6 3.6-13.7 3.6-1.1 0-2-0.2-2-0.5 0-0.3 0.6-1.1 1.2-1.8 0.7-0.7 5.6-4.6 10.8-8.7 5.2-4.2 12.2-9.6 15.5-12.1 3.3-2.5 8.3-6.4 11.1-8.5 2.8-2.1 10.4-8.4 17-13.9 6.5-5.5 18.8-17 27.4-25.5 8.6-8.5 19.9-20.9 25.1-27.5 5.3-6.6 11.6-14.9 14.1-18.5 2.4-3.6 7.7-12.1 11.7-19 3.9-6.9 7.6-13.2 8.1-14 0.5-0.8 3.7-6.9 7.1-13.5 3.4-6.6 12.4-24.4 19.9-39.5 7.6-15.1 15.6-31.3 17.8-36 2.2-4.7 7.1-15.7 11-24.5 3.8-8.8 9.5-22.2 12.6-29.8 3.1-7.5 5.6-14.1 5.6-14.7 0-0.6-0.8-1-1.8-1-0.9 0-8.2 4.4-16.2 9.7-8 5.4-19.1 13.1-24.7 17.3-5.6 4.1-12.7 9.3-15.8 11.5-3.1 2.2-7.8 5.6-10.5 7.5-2.6 1.9-15.1 11.5-27.7 21.2-12.5 9.8-26.4 20.9-30.8 24.8-4.4 3.8-10.7 9.3-14 12.1-3.3 2.8-10.4 9.5-15.9 14.8-5.4 5.3-15.1 15.2-21.6 22.1-6.5 6.9-13.3 14.4-15.1 16.7-1.9 2.3-8.1 10-13.9 17-5.8 7-12.8 16.2-15.5 20.3-2.7 4.1-6.4 9.5-8.3 12-1.8 2.5-5 7-7 10.1-2 3.1-6.4 9.6-9.8 14.5-3.4 4.9-6.9 9.6-7.9 10.4-1.7 1.4-1.8 1.2-1.1-3.5 0.3-2.8 1.8-9.9 3.2-16 1.4-6.1 3.2-14.1 4-18 0.8-3.9 1.9-9.9 2.5-13.5 0.5-3.6 1.9-13.5 2.9-22 1-8.5 2.5-24.7 3.1-36 1-16.4 1-24.9 0-42.5-0.7-12.1-1.9-28.5-2.7-36.5-0.8-8-2.2-19-2.9-24.5-0.8-5.5-2.1-14.1-2.9-19-0.8-4.9-2.6-14.6-4-21.5-1.5-6.9-3.8-17.7-5.2-24-1.4-6.3-3.2-14.4-4-18-0.8-3.6-2-8.5-2.8-11-0.7-2.5-2.5-8.8-4-14-1.4-5.2-4.2-15.1-6.2-22-1.9-6.9-5.5-18.8-8-26.5-2.5-7.7-7-21.9-10.1-31.5-3.1-9.6-6.2-19.2-7-21.3-0.7-2-1.9-3.7-2.7-3.7-0.8 0-1.8 0.6-2.4 1.3z"/>
		<path id="Path 1" class="s1" d="m37.5 68.7c-1.1 0.3-2.6 1.2-3.3 2.1-1 1.4-1.2 72.9-1.2 362.7 0 312.2 0.2 361.3 1.4 363 1.4 2 2.6 2 95.4 2 51.7 0 94.4-0.4 94.9-0.8 0.4-0.5 0.9-17.6 1.1-38 0.2-20.5 0.1-38.7-0.3-40.5-0.3-1.7-1.3-3.5-2.3-4-0.9-0.4-20.4-0.9-43.2-1.2l-41.5-0.5c0-434.2 0.4-558.6 0.9-558.9 0.4-0.3 19.6-0.7 42.6-0.9 23-0.1 42.2-0.6 42.7-1 0.4-0.5 0.9-17.6 1.1-38 0.2-23 0-38.7-0.7-41.2-0.7-2.8-1.7-4.2-3.3-4.7-1.3-0.4-42.8-0.7-92.3-0.7-49.5 0.1-90.9 0.3-92 0.6zm816.5 1.3c-1.9 1.9-2 3.2-2 41.5 0 33.8 0.2 39.7 1.5 41 1.3 1.3 7.5 1.5 43.5 1.5h42v560c-81.7 0-83.1 0.1-85 2-1.3 1.3-2.2 3.9-2.6 7.3-0.3 2.8-0.4 20.3-0.2 38.8 0.2 28.1 0.5 33.9 1.8 35.3 1.4 1.6 7.9 1.7 95.3 1.4 82-0.3 93.9-0.5 94.7-1.8 0.6-0.9 1-137.1 1-363.5 0-226.4-0.4-362.6-1-363.5-0.8-1.3-12.5-1.5-93.9-1.8-92.1-0.2-93.1-0.2-95.1 1.8z"/>
	</g>
</svg>